# xmcd
#
# Track frame offsets:
# 150
# 15622
# 29355
# 46928
# 63445
# 78811
# 92483
# 106905
# 123617
# 140809
#
# Disc length: 2091 seconds
#
#
# Revision: 6
# Processed by: cddbd v1.5.2PL0 Copyright (c) Steve Scherf et al.
# Submitted via: FreeRIP 2.951 
#
DISCID=7c08290a
DTITLE=Raça Negra - Raça Negra - Estrela Guia
DYEAR=1993
DGENRE=pagode
TTITLE0=Faixa 01 - Tempo Perdido
TTITLE1=Faixa 02 - Sem Você
TTITLE2=Faixa 03 - Estou Mal
TTITLE3=Faixa 04 - Não Quero Mais Sofrer
TTITLE4=Faixa 05 - Estrela Guia
TTITLE5=Faixa 06 -Jeito De Ser
TTITLE6=Faixa 07 - Não Vou Aceitar
TTITLE7=Faixa 08 - Doce Paixão
TTITLE8=Faixa 09 - Ciúme De Você
TTITLE9=Faixa 10 - Quando Te Encontrei
EXTD=pedro.rp@oi.com.br\nDez. 2006
EXTT0=
EXTT1=
EXTT2=
EXTT3=
EXTT4=
EXTT5=
EXTT6=
EXTT7=
EXTT8=
EXTT9=
PLAYORDER=
